<svg width="1160" height="238" viewBox="0 0 1160 238" fill="none" xmlns="http://www.w3.org/2000/svg">
<path d="M202.904 238H155.322L47.5821 75.2015V238H0V0.429688H47.5821L155.322 163.568V0.429688H202.904V238Z" fill="#2C0703"/>
<path d="M393.9 192.797H299.416L283.781 238H233.82L319.128 0.429688H374.527L459.835 238H409.534L393.9 192.797ZM380.985 154.732L346.658 55.489L312.331 154.732H380.985Z" fill="#2C0703"/>
<path d="M573.16 0.769575C598.084 0.769575 619.949 5.64107 638.755 15.3841C657.788 25.1271 672.403 39.0618 682.599 57.1883C693.022 75.0882 698.233 95.9337 698.233 119.725C698.233 143.516 693.022 164.361 682.599 182.261C672.403 199.935 657.788 213.643 638.755 223.386C619.949 233.129 598.084 238 573.16 238H490.231V0.769575H573.16ZM571.461 197.555C596.385 197.555 615.644 190.758 629.239 177.163C642.834 163.568 649.631 144.422 649.631 119.725C649.631 95.0274 642.834 75.768 629.239 61.9465C615.644 47.8985 596.385 40.8745 571.461 40.8745H537.813V197.555H571.461Z" fill="#2C0703"/>
<path d="M854.714 238L802.374 145.555H779.942V238H732.36V0.769575H821.406C839.759 0.769575 855.394 4.055 868.309 10.6259C881.224 16.9701 890.854 25.6935 897.198 36.796C903.769 47.6719 907.054 59.9073 907.054 73.5022C907.054 89.1363 902.522 103.298 893.459 115.986C884.396 128.448 870.914 137.058 853.014 141.816L909.773 238H854.714ZM779.942 109.868H819.707C832.622 109.868 842.252 106.81 848.596 100.692C854.94 94.3477 858.112 85.6243 858.112 74.5218C858.112 63.6459 854.94 55.2624 848.596 49.3713C842.252 43.2536 832.622 40.1947 819.707 40.1947H779.942V109.868Z" fill="#2C0703"/>
<path d="M1094.06 192.797H999.581L983.946 238H933.985L1019.29 0.429688H1074.69L1160 238H1109.7L1094.06 192.797ZM1081.15 154.732L1046.82 55.489L1012.5 154.732H1081.15Z" fill="#2C0703"/>
</svg>
