<svg width="32" height="19" viewBox="0 0 32 19" fill="none" xmlns="http://www.w3.org/2000/svg">
<g clip-path="url(#clip0_462_132)">
<path d="M13.7743 15.6484H10.0236L3.75063 6.13187V15.6484H0V0.21978H3.75063L10.0236 9.78022V0.21978H13.7743V15.6484Z" fill="#FFFFFE"/>
<path d="M27.4598 18.2857L25.4857 15.6264C24.9008 15.7436 24.3306 15.8022 23.7749 15.8022C22.3273 15.8022 20.9967 15.4652 19.783 14.7912C18.584 14.1172 17.6262 13.1795 16.9097 11.978C16.2079 10.7619 15.8569 9.39927 15.8569 7.89011C15.8569 6.38095 16.2079 5.02564 16.9097 3.82418C17.6262 2.62271 18.584 1.68498 19.783 1.01099C20.9967 0.336996 22.3273 0 23.7749 0C25.2225 0 26.5459 0.336996 27.7449 1.01099C28.9585 1.68498 29.909 2.62271 30.5963 3.82418C31.2981 5.02564 31.6491 6.38095 31.6491 7.89011C31.6491 9.20879 31.3785 10.4176 30.8375 11.5165C30.3111 12.6007 29.5727 13.5018 28.6222 14.2198L32 18.2857H27.4598ZM19.6953 7.89011C19.6953 9.25275 20.0608 10.3443 20.792 11.1648C21.5377 11.9707 22.532 12.3736 23.7749 12.3736C25.0032 12.3736 25.9829 11.9634 26.714 11.1429C27.4598 10.3223 27.8326 9.2381 27.8326 7.89011C27.8326 6.52747 27.4598 5.44322 26.714 4.63736C25.9829 3.81685 25.0032 3.40659 23.7749 3.40659C22.532 3.40659 21.5377 3.80952 20.792 4.61538C20.0608 5.42125 19.6953 6.51282 19.6953 7.89011Z" fill="#FFFFFE"/>
</g>
<defs>
<clipPath id="clip0_462_132">
<rect width="32" height="18.2857" fill="white"/>
</clipPath>
</defs>
</svg>
