<svg width="45" height="26" viewBox="0 0 45 26" fill="none" xmlns="http://www.w3.org/2000/svg">
<path d="M19.3701 22.25H14.0957L5.27433 8.71875V22.25H0V0.3125H5.27433L14.0957 13.9062V0.3125H19.3701V22.25Z" fill="#2C0703"/>
<path d="M38.6153 26L35.8393 22.2188C35.0168 22.3854 34.2149 22.4687 33.4335 22.4687C31.3978 22.4687 29.5266 21.9896 27.8199 21.0312C26.1337 20.0729 24.7869 18.7396 23.7793 17.0312C22.7923 15.3021 22.2988 13.3646 22.2988 11.2187C22.2988 9.07292 22.7923 7.14583 23.7793 5.4375C24.7869 3.72917 26.1337 2.39583 27.8199 1.4375C29.5266 0.479167 31.3978 0 33.4335 0C35.4692 0 37.3301 0.479167 39.0163 1.4375C40.723 2.39583 42.0595 3.72917 43.026 5.4375C44.013 7.14583 44.5065 9.07292 44.5065 11.2187C44.5065 13.0937 44.1261 14.8125 43.3653 16.375C42.625 17.9167 41.5866 19.1979 40.25 20.2188L45 26H38.6153ZM27.6965 11.2187C27.6965 13.1562 28.2106 14.7083 29.2387 15.875C30.2874 17.0208 31.6857 17.5937 33.4335 17.5937C35.1607 17.5937 36.5384 17.0104 37.5666 15.8437C38.6153 14.6771 39.1396 13.1354 39.1396 11.2187C39.1396 9.28125 38.6153 7.73958 37.5666 6.59375C36.5384 5.42708 35.1607 4.84375 33.4335 4.84375C31.6857 4.84375 30.2874 5.41667 29.2387 6.5625C28.2106 7.70833 27.6965 9.26042 27.6965 11.2187Z" fill="#2C0703"/>
</svg>
